<mxfile host="app.diagrams.net" modified="2024-05-20T02:14:42.133Z" agent="Mozilla/5.0 (Windows NT 10.0; Win64; x64) AppleWebKit/537.36 (KHTML, like Gecko) Chrome/125.0.0.0 Safari/537.36 Edg/125.0.0.0" etag="qsKvjC3wh82Lucp5oaU9" version="24.4.4" type="github">
  <diagram id="R2lEEEUBdFMjLlhIrx00" name="Page-1">
    <mxGraphModel dx="2424" dy="1047" grid="1" gridSize="10" guides="1" tooltips="1" connect="1" arrows="1" fold="1" page="1" pageScale="1" pageWidth="850" pageHeight="1100" math="0" shadow="0" extFonts="Permanent Marker^https://fonts.googleapis.com/css?family=Permanent+Marker">
      <root>
        <mxCell id="0" />
        <mxCell id="1" parent="0" />
        <mxCell id="Qd0V3YHwbgPYym3Jfscd-1" value="医疗健康信息采集系统" style="rounded=0;whiteSpace=wrap;html=1;" vertex="1" parent="1">
          <mxGeometry x="450" y="620" width="150" height="60" as="geometry" />
        </mxCell>
        <mxCell id="Qd0V3YHwbgPYym3Jfscd-2" value="数据分析模块" style="rounded=0;whiteSpace=wrap;html=1;" vertex="1" parent="1">
          <mxGeometry x="450" y="750" width="150" height="60" as="geometry" />
        </mxCell>
        <mxCell id="Qd0V3YHwbgPYym3Jfscd-3" value="分析结果展示模块" style="rounded=0;whiteSpace=wrap;html=1;" vertex="1" parent="1">
          <mxGeometry x="775" y="750" width="150" height="60" as="geometry" />
        </mxCell>
        <mxCell id="Qd0V3YHwbgPYym3Jfscd-4" value="数据提取模块" style="rounded=0;whiteSpace=wrap;html=1;" vertex="1" parent="1">
          <mxGeometry x="180" y="750" width="150" height="60" as="geometry" />
        </mxCell>
        <mxCell id="Qd0V3YHwbgPYym3Jfscd-8" value="爬&lt;div&gt;取&lt;/div&gt;&lt;div&gt;网&lt;/div&gt;&lt;div&gt;站&lt;/div&gt;" style="rounded=0;whiteSpace=wrap;html=1;" vertex="1" parent="1">
          <mxGeometry x="140" y="860" width="60" height="220" as="geometry" />
        </mxCell>
        <mxCell id="Qd0V3YHwbgPYym3Jfscd-9" value="提&lt;div&gt;取&lt;/div&gt;&lt;div&gt;信&lt;/div&gt;&lt;div&gt;息&lt;/div&gt;" style="rounded=0;whiteSpace=wrap;html=1;" vertex="1" parent="1">
          <mxGeometry x="225" y="860" width="60" height="220" as="geometry" />
        </mxCell>
        <mxCell id="Qd0V3YHwbgPYym3Jfscd-10" value="可&lt;div&gt;视&lt;/div&gt;&lt;div&gt;化&lt;/div&gt;&lt;div&gt;预&lt;/div&gt;&lt;div&gt;处&lt;/div&gt;&lt;div&gt;理&lt;/div&gt;" style="rounded=0;whiteSpace=wrap;html=1;" vertex="1" parent="1">
          <mxGeometry x="380" y="860" width="60" height="220" as="geometry" />
        </mxCell>
        <mxCell id="Qd0V3YHwbgPYym3Jfscd-11" value="趋&lt;div&gt;势&lt;/div&gt;&lt;div&gt;分&lt;/div&gt;&lt;div&gt;析&lt;/div&gt;" style="rounded=0;whiteSpace=wrap;html=1;" vertex="1" parent="1">
          <mxGeometry x="540" y="860" width="60" height="220" as="geometry" />
        </mxCell>
        <mxCell id="Qd0V3YHwbgPYym3Jfscd-12" value="文&lt;div&gt;本&lt;/div&gt;&lt;div&gt;情&lt;/div&gt;&lt;div&gt;感&lt;/div&gt;&lt;div&gt;判&lt;/div&gt;&lt;div&gt;断&lt;/div&gt;" style="rounded=0;whiteSpace=wrap;html=1;" vertex="1" parent="1">
          <mxGeometry x="460" y="860" width="60" height="220" as="geometry" />
        </mxCell>
        <mxCell id="Qd0V3YHwbgPYym3Jfscd-13" value="统&lt;div&gt;计&lt;/div&gt;&lt;div&gt;主&lt;/div&gt;&lt;div&gt;要&lt;/div&gt;&lt;div&gt;词&lt;/div&gt;&lt;div&gt;汇&lt;/div&gt;" style="rounded=0;whiteSpace=wrap;html=1;" vertex="1" parent="1">
          <mxGeometry x="620" y="860" width="60" height="220" as="geometry" />
        </mxCell>
        <mxCell id="Qd0V3YHwbgPYym3Jfscd-14" value="存&lt;div&gt;入&lt;/div&gt;&lt;div&gt;数&lt;/div&gt;&lt;div&gt;据&lt;/div&gt;&lt;div&gt;库&lt;/div&gt;" style="rounded=0;whiteSpace=wrap;html=1;" vertex="1" parent="1">
          <mxGeometry x="300" y="860" width="60" height="220" as="geometry" />
        </mxCell>
        <mxCell id="Qd0V3YHwbgPYym3Jfscd-15" value="文&lt;div&gt;本&lt;/div&gt;&lt;div&gt;情&lt;/div&gt;&lt;div&gt;感&lt;/div&gt;&lt;div&gt;评&lt;/div&gt;&lt;div&gt;分&lt;/div&gt;&lt;div&gt;直&lt;/div&gt;&lt;div&gt;方&lt;/div&gt;&lt;div&gt;图&lt;/div&gt;" style="rounded=0;whiteSpace=wrap;html=1;" vertex="1" parent="1">
          <mxGeometry x="730" y="860" width="60" height="220" as="geometry" />
        </mxCell>
        <mxCell id="Qd0V3YHwbgPYym3Jfscd-16" value="传&lt;div&gt;染&lt;/div&gt;&lt;div&gt;病&lt;/div&gt;&lt;div&gt;变&lt;/div&gt;&lt;div&gt;化&lt;/div&gt;&lt;div&gt;趋&lt;/div&gt;&lt;div&gt;势&lt;/div&gt;&lt;div&gt;图&lt;/div&gt;" style="rounded=0;whiteSpace=wrap;html=1;" vertex="1" parent="1">
          <mxGeometry x="820" y="860" width="60" height="220" as="geometry" />
        </mxCell>
        <mxCell id="Qd0V3YHwbgPYym3Jfscd-17" value="评&lt;div&gt;论&lt;div&gt;词&lt;/div&gt;&lt;div&gt;汇&lt;/div&gt;&lt;div&gt;词&lt;/div&gt;&lt;div&gt;云&lt;/div&gt;&lt;div&gt;图&lt;/div&gt;&lt;/div&gt;" style="rounded=0;whiteSpace=wrap;html=1;" vertex="1" parent="1">
          <mxGeometry x="910" y="860" width="60" height="220" as="geometry" />
        </mxCell>
        <mxCell id="Qd0V3YHwbgPYym3Jfscd-20" value="" style="endArrow=none;html=1;rounded=0;entryX=0.5;entryY=1;entryDx=0;entryDy=0;exitX=0.5;exitY=0;exitDx=0;exitDy=0;" edge="1" parent="1" source="Qd0V3YHwbgPYym3Jfscd-2" target="Qd0V3YHwbgPYym3Jfscd-1">
          <mxGeometry width="50" height="50" relative="1" as="geometry">
            <mxPoint x="480" y="740" as="sourcePoint" />
            <mxPoint x="530" y="690" as="targetPoint" />
          </mxGeometry>
        </mxCell>
        <mxCell id="Qd0V3YHwbgPYym3Jfscd-21" value="" style="endArrow=none;html=1;rounded=0;" edge="1" parent="1">
          <mxGeometry width="50" height="50" relative="1" as="geometry">
            <mxPoint x="250" y="720" as="sourcePoint" />
            <mxPoint x="850" y="720" as="targetPoint" />
          </mxGeometry>
        </mxCell>
        <mxCell id="Qd0V3YHwbgPYym3Jfscd-22" value="" style="endArrow=none;html=1;rounded=0;" edge="1" parent="1">
          <mxGeometry width="50" height="50" relative="1" as="geometry">
            <mxPoint x="250" y="750" as="sourcePoint" />
            <mxPoint x="250" y="720" as="targetPoint" />
          </mxGeometry>
        </mxCell>
        <mxCell id="Qd0V3YHwbgPYym3Jfscd-23" value="" style="endArrow=none;html=1;rounded=0;exitX=0.5;exitY=0;exitDx=0;exitDy=0;" edge="1" parent="1" source="Qd0V3YHwbgPYym3Jfscd-3">
          <mxGeometry width="50" height="50" relative="1" as="geometry">
            <mxPoint x="670" y="810" as="sourcePoint" />
            <mxPoint x="850" y="720" as="targetPoint" />
          </mxGeometry>
        </mxCell>
        <mxCell id="Qd0V3YHwbgPYym3Jfscd-25" value="" style="endArrow=none;html=1;rounded=0;" edge="1" parent="1">
          <mxGeometry width="50" height="50" relative="1" as="geometry">
            <mxPoint x="170" y="840" as="sourcePoint" />
            <mxPoint x="330" y="840" as="targetPoint" />
          </mxGeometry>
        </mxCell>
        <mxCell id="Qd0V3YHwbgPYym3Jfscd-26" value="" style="endArrow=none;html=1;rounded=0;entryX=0.502;entryY=1.035;entryDx=0;entryDy=0;entryPerimeter=0;exitX=0.5;exitY=0;exitDx=0;exitDy=0;" edge="1" parent="1" source="Qd0V3YHwbgPYym3Jfscd-9" target="Qd0V3YHwbgPYym3Jfscd-4">
          <mxGeometry width="50" height="50" relative="1" as="geometry">
            <mxPoint x="250" y="850" as="sourcePoint" />
            <mxPoint x="340" y="850" as="targetPoint" />
          </mxGeometry>
        </mxCell>
        <mxCell id="Qd0V3YHwbgPYym3Jfscd-27" value="" style="endArrow=none;html=1;rounded=0;exitX=0.5;exitY=0;exitDx=0;exitDy=0;" edge="1" parent="1" source="Qd0V3YHwbgPYym3Jfscd-14">
          <mxGeometry width="50" height="50" relative="1" as="geometry">
            <mxPoint x="160" y="850" as="sourcePoint" />
            <mxPoint x="330" y="840" as="targetPoint" />
          </mxGeometry>
        </mxCell>
        <mxCell id="Qd0V3YHwbgPYym3Jfscd-28" value="" style="endArrow=none;html=1;rounded=0;entryX=0.5;entryY=0;entryDx=0;entryDy=0;" edge="1" parent="1" target="Qd0V3YHwbgPYym3Jfscd-8">
          <mxGeometry width="50" height="50" relative="1" as="geometry">
            <mxPoint x="170" y="840" as="sourcePoint" />
            <mxPoint x="150.00000000000006" y="859.9999999999999" as="targetPoint" />
          </mxGeometry>
        </mxCell>
        <mxCell id="Qd0V3YHwbgPYym3Jfscd-29" value="" style="endArrow=none;html=1;rounded=0;" edge="1" parent="1">
          <mxGeometry width="50" height="50" relative="1" as="geometry">
            <mxPoint x="410" y="840" as="sourcePoint" />
            <mxPoint x="650" y="840" as="targetPoint" />
          </mxGeometry>
        </mxCell>
        <mxCell id="Qd0V3YHwbgPYym3Jfscd-30" value="" style="endArrow=none;html=1;rounded=0;entryX=0.5;entryY=0;entryDx=0;entryDy=0;" edge="1" parent="1" target="Qd0V3YHwbgPYym3Jfscd-10">
          <mxGeometry width="50" height="50" relative="1" as="geometry">
            <mxPoint x="410" y="840" as="sourcePoint" />
            <mxPoint x="650" y="850" as="targetPoint" />
          </mxGeometry>
        </mxCell>
        <mxCell id="Qd0V3YHwbgPYym3Jfscd-31" value="" style="endArrow=none;html=1;rounded=0;exitX=0.5;exitY=1;exitDx=0;exitDy=0;" edge="1" parent="1" source="Qd0V3YHwbgPYym3Jfscd-2">
          <mxGeometry width="50" height="50" relative="1" as="geometry">
            <mxPoint x="520" y="830" as="sourcePoint" />
            <mxPoint x="525" y="840" as="targetPoint" />
          </mxGeometry>
        </mxCell>
        <mxCell id="Qd0V3YHwbgPYym3Jfscd-32" value="" style="endArrow=none;html=1;rounded=0;entryX=0.5;entryY=0;entryDx=0;entryDy=0;" edge="1" parent="1" target="Qd0V3YHwbgPYym3Jfscd-12">
          <mxGeometry width="50" height="50" relative="1" as="geometry">
            <mxPoint x="490" y="840" as="sourcePoint" />
            <mxPoint x="480" y="850" as="targetPoint" />
          </mxGeometry>
        </mxCell>
        <mxCell id="Qd0V3YHwbgPYym3Jfscd-33" value="" style="endArrow=none;html=1;rounded=0;entryX=0.5;entryY=0;entryDx=0;entryDy=0;" edge="1" parent="1" target="Qd0V3YHwbgPYym3Jfscd-11">
          <mxGeometry width="50" height="50" relative="1" as="geometry">
            <mxPoint x="570" y="840" as="sourcePoint" />
            <mxPoint x="765" y="850" as="targetPoint" />
          </mxGeometry>
        </mxCell>
        <mxCell id="Qd0V3YHwbgPYym3Jfscd-34" value="" style="endArrow=none;html=1;rounded=0;exitX=0.5;exitY=0;exitDx=0;exitDy=0;" edge="1" parent="1" source="Qd0V3YHwbgPYym3Jfscd-13">
          <mxGeometry width="50" height="50" relative="1" as="geometry">
            <mxPoint x="460" y="890" as="sourcePoint" />
            <mxPoint x="650" y="840" as="targetPoint" />
          </mxGeometry>
        </mxCell>
        <mxCell id="Qd0V3YHwbgPYym3Jfscd-36" value="" style="endArrow=none;html=1;rounded=0;" edge="1" parent="1">
          <mxGeometry width="50" height="50" relative="1" as="geometry">
            <mxPoint x="760" y="840" as="sourcePoint" />
            <mxPoint x="940" y="840" as="targetPoint" />
          </mxGeometry>
        </mxCell>
        <mxCell id="Qd0V3YHwbgPYym3Jfscd-37" value="" style="endArrow=none;html=1;rounded=0;entryX=0.5;entryY=1;entryDx=0;entryDy=0;exitX=0.5;exitY=0;exitDx=0;exitDy=0;" edge="1" parent="1" source="Qd0V3YHwbgPYym3Jfscd-16" target="Qd0V3YHwbgPYym3Jfscd-3">
          <mxGeometry width="50" height="50" relative="1" as="geometry">
            <mxPoint x="750" y="850" as="sourcePoint" />
            <mxPoint x="980" y="850" as="targetPoint" />
          </mxGeometry>
        </mxCell>
        <mxCell id="Qd0V3YHwbgPYym3Jfscd-38" value="" style="endArrow=none;html=1;rounded=0;entryX=0.5;entryY=0;entryDx=0;entryDy=0;" edge="1" parent="1" target="Qd0V3YHwbgPYym3Jfscd-15">
          <mxGeometry width="50" height="50" relative="1" as="geometry">
            <mxPoint x="760" y="840" as="sourcePoint" />
            <mxPoint x="980" y="850" as="targetPoint" />
          </mxGeometry>
        </mxCell>
        <mxCell id="Qd0V3YHwbgPYym3Jfscd-39" value="" style="endArrow=none;html=1;rounded=0;entryX=0.5;entryY=0;entryDx=0;entryDy=0;" edge="1" parent="1" target="Qd0V3YHwbgPYym3Jfscd-17">
          <mxGeometry width="50" height="50" relative="1" as="geometry">
            <mxPoint x="940" y="840" as="sourcePoint" />
            <mxPoint x="1105" y="830" as="targetPoint" />
          </mxGeometry>
        </mxCell>
      </root>
    </mxGraphModel>
  </diagram>
</mxfile>
